<svg width="20.000000" height="20.000000" viewBox="0 0 20 20" fill="none" xmlns="http://www.w3.org/2000/svg" xmlns:xlink="http://www.w3.org/1999/xlink">
	<desc>
			Created with Pixso.
	</desc>
	<defs/>
	<mask id="mask0_83909" mask-type="alpha" maskUnits="userSpaceOnUse" x="0.000000" y="0.000000" width="20.000000" height="20.000000">
		<rect id="Background" width="20.000000" height="20.000000" fill="#000000" fill-opacity="1.000000"/>
	</mask>
	<g mask="url(#mask0_83909)">
		<path id="Shape" d="M17.2852 10.8708C16.7217 11.0208 16.1387 11.0966 15.5547 11.0966C13.7754 11.0966 12.1045 10.405 10.8496 9.14996C9.17578 7.47662 8.5166 5.0108 9.12988 2.71411C9.20605 2.42664 9.12402 2.12 8.91406 1.90997C8.7041 1.69995 8.39746 1.61499 8.1084 1.69495C6.69043 2.07416 5.39746 2.8183 4.36816 3.84662C1.11914 7.09497 1.11914 12.3824 4.36816 15.6324C5.94238 17.2067 8.03516 18.0742 10.2607 18.0742C12.4873 18.0742 14.5791 17.2075 16.1533 15.6333C17.1826 14.6025 17.9277 13.3075 18.3057 11.8908C18.3818 11.6033 18.2988 11.2966 18.0889 11.0866C17.8789 10.8758 17.5713 10.7925 17.2852 10.8708ZM10.2627 16.4075C12.042 16.4075 13.7168 15.7142 14.9756 14.455C15.4766 13.9525 15.8945 13.3716 16.2119 12.7391C13.7783 12.93 11.3955 12.0541 9.67285 10.33C7.94238 8.59998 7.0791 6.19415 7.26367 3.78998C6.62891 4.10748 6.04883 4.52417 5.54785 5.02582C2.94922 7.625 2.94922 11.855 5.54785 14.4542C6.80762 15.7133 8.48145 16.4075 10.2627 16.4075Z" clip-rule="evenodd" fill="#CED4DA" fill-opacity="1.000000" fill-rule="evenodd"/>
	</g>
</svg>
