<svg width="24" height="24" viewBox="0 0 24 24" fill="white" xmlns="http://www.w3.org/2000/svg">
<mask id="mask0_0_51112" style="mask-type:luminance" maskUnits="userSpaceOnUse" x="0" y="0" width="24" height="24">
<rect width="24" height="24" fill="white"/>
</mask>
<g mask="url(#mask0_0_51112)">
<path fill-rule="evenodd" clip-rule="evenodd" d="M6.99219 11.9999C6.99219 14.7609 9.23819 17.0069 11.9992 17.0069C14.7602 17.0069 17.0062 14.7609 17.0062 11.9999C17.0062 9.23892 14.7602 6.99292 11.9992 6.99292C9.23819 6.99292 6.99219 9.23892 6.99219 11.9999ZM11.9992 8.99292C13.6572 8.99292 15.0062 10.3419 15.0062 11.9999C15.0062 13.6579 13.6572 15.0069 11.9992 15.0069C10.3412 15.0069 8.99219 13.6579 8.99219 11.9999C8.99219 10.3419 10.3412 8.99292 11.9992 8.99292ZM11 19H13V22H11V19ZM11 2H13V5H11V2ZM2 11H5V13H2V11ZM19 11H22V13H19V11ZM4.21875 18.363L6.33875 16.241L7.75375 17.655L5.63375 19.777L4.21875 18.363ZM16.2422 6.34392L18.3642 4.22192L19.7782 5.63592L17.6562 7.75792L16.2422 6.34392ZM6.34075 7.7589L4.21875 5.6369L5.63375 4.2229L7.75375 6.3449L6.34075 7.7589ZM19.7782 18.3639L18.3642 19.7779L16.2422 17.6559L17.6562 16.2419L19.7782 18.3639Z" fill="white" fill-opacity="0.6"/>
</g>
</svg>
